# xmcd
#
# Track frame offsets:
#	150
#	19590
#	39225
#	60382
#	89197
#	107780
#	127740
#	142892
#	165872
#	188457
#	210052
#	234045
#	257995
#	277547
#	297915
#
# Disc length: 4322 seconds
#
# Revision: 0
# Processed by: cddbd v1.5.1PL0 Copyright (c) Steve Scherf et al.
# Submitted via: dBpowerAMP V4.0
#
DISCID=b010e00f
DTITLE=Texas Renegade - 3 am
DYEAR=2004
DGENRE=Country
TTITLE0=3am
TTITLE1=Down the Line
TTITLE2=Flite Acres Road
TTITLE3=Be Alright
TTITLE4=Way I am
TTITLE5=Waiting on Time
TTITLE6=Best Asset
TTITLE7=I Need Love
TTITLE8=Good Day to Start
TTITLE9=South of Sanity
TTITLE10=Don't Wanna Wake Up
TTITLE11=State of Mind
TTITLE12=Heartbreakers Waltz
TTITLE13=The Rain
TTITLE14=Renegade
EXTD=
EXTT0=
EXTT1=
EXTT2=
EXTT3=
EXTT4=
EXTT5=
EXTT6=
EXTT7=
EXTT8=
EXTT9=
EXTT10=
EXTT11=
EXTT12=
EXTT13=
EXTT14=
PLAYORDER=
